<svg width="12" height="20" viewBox="0 0 12 20" fill="none" xmlns="http://www.w3.org/2000/svg">
<path d="M5.45871 13.6842C4.90643 13.6842 4.45377 13.236 4.48417 12.6846C4.53443 11.7727 4.65916 11.0838 4.85835 10.6179C5.12477 9.99474 5.68881 9.31509 6.55046 8.57895C7.30275 7.94737 7.87633 7.39895 8.27119 6.93368C8.66605 6.46842 8.86312 5.93789 8.86238 5.3421C8.86238 4.62281 8.61027 4.02632 8.10605 3.55263C7.60183 3.07895 6.89981 2.8421 6 2.8421C5.06422 2.8421 4.35303 3.11403 3.86642 3.65789C3.65144 3.89818 3.46439 4.14017 3.30527 4.38387C2.99373 4.86105 2.39529 5.13587 1.8677 4.92046L0.874442 4.51492C0.38364 4.31453 0.126721 3.76039 0.376151 3.2926C0.784337 2.52707 1.36538 1.84182 2.11927 1.23684C3.14679 0.412281 4.44037 0 6 0C7.9266 0 9.40844 0.513333 10.4455 1.54C11.4826 2.56667 12.0007 3.79895 12 5.23684C12 6.11403 11.8029 6.86421 11.4088 7.48737C11.0147 8.11053 10.3952 8.81649 9.55046 9.60526C8.65137 10.4298 8.10569 11.0572 7.91339 11.4874C7.79023 11.7629 7.70636 12.1623 7.66178 12.6857C7.61493 13.2357 7.17657 13.6842 6.62456 13.6842H5.45871ZM6 20C5.39449 20 4.87633 19.7937 4.4455 19.3811C4.01468 18.9684 3.7989 18.473 3.79816 17.8947C3.79816 17.3158 4.01394 16.82 4.4455 16.4074C4.87706 15.9947 5.39523 15.7888 6 15.7895C6.6055 15.7895 7.12404 15.9958 7.55559 16.4084C7.98715 16.8211 8.20257 17.3165 8.20183 17.8947C8.20183 18.4737 7.98605 18.9695 7.55449 19.3821C7.12293 19.7947 6.60477 20.0007 6 20Z" fill="white"/>
</svg>
