<svg width="143" height="30" viewBox="0 0 143 30" fill="none" xmlns="http://www.w3.org/2000/svg">
<path d="M2.51631 21.771H18.252V11.2207L12.8288 5.67249H2.51631V21.771ZM2.51631 24.0708C1.89812 24.0708 1.36872 23.8455 0.928123 23.3947C0.487523 22.9439 0.267597 22.4027 0.268347 21.771V5.67249C0.268347 5.04004 0.488647 4.49844 0.929247 4.04768C1.36985 3.59692 1.89887 3.37193 2.51631 3.37269H13.7561L20.5 10.2721V21.771C20.5 22.4035 20.2797 22.9451 19.8391 23.3958C19.3985 23.8466 18.8695 24.0716 18.252 24.0708H2.51631ZM4.76427 19.4713H16.0041V17.1715H4.76427V19.4713ZM4.76427 14.8717H16.0041V12.5719H4.76427V14.8717ZM4.76427 10.2721H12.6321V7.97228H4.76427V10.2721Z" fill="#FFFFFF"/>
<path d="M45.4697 4.72793L45.1837 9.25565L45.0783 9.28645C44.3357 8.14682 43.0712 7.4076 41.2848 7.06879C40.7229 6.95585 40.1809 6.89938 39.6591 6.89938C39.1473 6.89938 38.7057 6.94559 38.3344 7.03799C37.9731 7.13039 37.662 7.26386 37.4011 7.4384C36.8491 7.80801 36.5732 8.29055 36.5732 8.88604C36.5732 9.66632 36.814 10.2515 37.2957 10.6417C37.8979 11.114 38.8964 11.4476 40.2913 11.6427C41.6863 11.8275 42.8052 12.0842 43.6482 12.4127C44.4912 12.7413 45.1837 13.1571 45.7256 13.6602C46.7492 14.6047 47.261 15.9394 47.261 17.6643C47.261 19.923 46.4281 21.6632 44.7622 22.885C43.3371 23.9322 41.5408 24.4559 39.3731 24.4559C37.6269 24.4559 35.9008 24.117 34.1947 23.4394C33.6327 23.2136 33.141 22.9517 32.7195 22.654L32.8851 17.5103L32.9453 17.4641C34.1897 19.6612 36.232 20.7598 39.072 20.7598C41.0892 20.7598 42.4239 20.2618 43.0762 19.2659C43.297 18.9271 43.4074 18.5524 43.4074 18.1417C43.4074 17.7207 43.3421 17.3768 43.2117 17.1099C43.0812 16.8326 42.8654 16.5965 42.5644 16.4014C41.9823 16.0113 41.0039 15.7495 39.629 15.616C38.2541 15.4825 37.1301 15.231 36.257 14.8614C35.3839 14.4918 34.6865 14.0349 34.1646 13.4908C33.2213 12.5051 32.7496 11.1294 32.7496 9.36345C32.7496 7.53593 33.3768 6.0575 34.6313 4.92813C35.9058 3.77823 37.6219 3.20329 39.7795 3.20329C41.9472 3.20329 43.8439 3.7115 45.4697 4.72793Z" fill="#FFFFFF"/>
<path d="M54.9382 22.0996C54.9382 23.0031 54.9783 23.6602 55.0586 24.0708H51.2802V7.97741H54.9382V9.34805C56.2629 8.22895 57.6779 7.6694 59.1832 7.6694C60.8291 7.6694 62.1437 8.24435 63.1272 9.39425C64.1107 10.5339 64.6024 12.038 64.6024 13.9066V20.0359C64.6024 21.771 64.6275 22.8131 64.6777 23.1622C64.7279 23.5113 64.7931 23.7372 64.8734 23.8398C64.9637 23.9425 65.039 24.0349 65.0992 24.117L65.0691 24.1786C64.2562 24.1068 63.6641 24.0708 63.2928 24.0708H62.2391C61.9179 24.0708 61.4864 24.0862 60.9445 24.117V15.7238C60.9445 12.7156 60.0513 11.2115 58.265 11.2115C56.9403 11.2115 55.8314 11.9097 54.9382 13.306V22.0996Z" fill="#FFFFFF"/>
<path d="M68.5313 3.38809C69.3342 2.10472 70.1721 0.975359 71.0452 0L74.2817 2.60267C73.8502 3.14682 73.4487 3.6807 73.0774 4.20431C73.0774 4.20431 72.6911 4.76386 71.9183 5.88296L68.5313 3.38809ZM72.4903 22.346C72.4903 23.229 72.5104 23.8039 72.5506 24.0708H68.727V7.97741H72.4903V22.346Z" fill="#FFFFFF"/>
<path d="M80.6643 23.7474V28.2752C80.6643 29.1581 80.6844 29.7331 80.7245 30H76.9762V7.97741H80.6643V8.97844C81.8786 8.10575 83.0427 7.6694 84.1567 7.6694C85.2706 7.6694 86.2591 7.82854 87.1222 8.14682C87.9852 8.46509 88.7429 8.95791 89.3952 9.62526C90.8303 11.0729 91.5478 13.1366 91.5478 15.8162C91.5478 17.5924 91.1414 19.1786 90.3285 20.5749C89.6361 21.7556 88.6777 22.7002 87.4533 23.4086C86.3695 24.0349 85.1953 24.348 83.9309 24.348C82.6664 24.348 81.5775 24.1478 80.6643 23.7474ZM80.6643 19.8665C81.427 20.5236 82.4155 20.8522 83.6298 20.8522C85.6168 20.8522 86.9014 19.8717 87.4835 17.9107C87.6842 17.2433 87.7845 16.5298 87.7845 15.77C87.7845 15 87.7143 14.3891 87.5738 13.9374C87.4333 13.4754 87.2476 13.0801 87.0168 12.7515C86.796 12.4127 86.5451 12.1355 86.2641 11.9199C85.9831 11.694 85.6971 11.5144 85.4061 11.3809C84.8943 11.1448 84.3674 11.0267 83.8255 11.0267C83.2836 11.0267 82.7216 11.155 82.1395 11.4117C81.5575 11.6684 81.0657 12.0123 80.6643 12.4435V19.8665Z" fill="#FFFFFF"/>
<path d="M98.638 23.7474V28.2752C98.638 29.1581 98.658 29.7331 98.6982 30H94.9499V7.97741H98.638V8.97844C99.8523 8.10575 101.016 7.6694 102.13 7.6694C103.244 7.6694 104.233 7.82854 105.096 8.14682C105.959 8.46509 106.717 8.95791 107.369 9.62526C108.804 11.0729 109.521 13.1366 109.521 15.8162C109.521 17.5924 109.115 19.1786 108.302 20.5749C107.61 21.7556 106.651 22.7002 105.427 23.4086C104.343 24.0349 103.169 24.348 101.905 24.348C100.64 24.348 99.5512 24.1478 98.638 23.7474ZM98.638 19.8665C99.4007 20.5236 100.389 20.8522 101.603 20.8522C103.59 20.8522 104.875 19.8717 105.457 17.9107C105.658 17.2433 105.758 16.5298 105.758 15.77C105.758 15 105.688 14.3891 105.547 13.9374C105.407 13.4754 105.221 13.0801 104.99 12.7515C104.77 12.4127 104.519 12.1355 104.238 11.9199C103.957 11.694 103.671 11.5144 103.38 11.3809C102.868 11.1448 102.341 11.0267 101.799 11.0267C101.257 11.0267 100.695 11.155 100.113 11.4117C99.5311 11.6684 99.0394 12.0123 98.638 12.4435V19.8665Z" fill="#FFFFFF"/>
<path d="M112.126 24.0708C112.216 23.4446 112.261 22.8901 112.261 22.4076C112.261 21.9251 112.256 21.5965 112.246 21.422C112.246 21.2372 112.241 21.0575 112.231 20.883C112.221 20.7084 112.211 20.5441 112.201 20.3901L112.156 20.0051H116.521C116.491 20.3953 116.476 20.7136 116.476 20.96L116.446 21.6068C116.446 21.8018 116.446 22.1715 116.446 22.7156C116.446 23.2495 116.471 23.7012 116.521 24.0708H112.126Z" fill="#FFFFFF"/>
<path d="M119.893 3.38809C120.696 2.10472 121.534 0.975359 122.407 0L125.644 2.60267C125.212 3.14682 124.811 3.6807 124.439 4.20431C124.439 4.20431 124.053 4.76386 123.28 5.88296L119.893 3.38809ZM123.852 22.346C123.852 23.229 123.872 23.8039 123.912 24.0708H120.089V7.97741H123.852V22.346Z" fill="#FFFFFF"/>
<path d="M126.968 16.1088C126.968 14.9795 127.154 13.9014 127.525 12.8747C127.907 11.8378 128.449 10.9343 129.151 10.1643C130.687 8.50103 132.679 7.6694 135.127 7.6694C137.566 7.6694 139.503 8.45483 140.938 10.0257C142.313 11.5246 143 13.4702 143 15.8624C143 18.2546 142.293 20.2361 140.878 21.807C139.382 23.4702 137.4 24.3018 134.932 24.3018C132.383 24.3018 130.385 23.4856 128.94 21.8532C127.626 20.3645 126.968 18.4497 126.968 16.1088ZM130.626 16.0164C130.626 16.6632 130.732 17.2895 130.942 17.8953C131.153 18.501 131.454 19.0195 131.846 19.4507C132.679 20.385 133.772 20.8522 135.127 20.8522C136.382 20.8522 137.37 20.3953 138.093 19.4815C138.795 18.5986 139.146 17.4487 139.146 16.0318C139.146 14.5945 138.785 13.4343 138.063 12.5513C137.29 11.6068 136.231 11.1345 134.886 11.1345C133.522 11.1345 132.453 11.6376 131.68 12.6437C130.978 13.5678 130.626 14.692 130.626 16.0164Z" fill="#FFFFFF"/>
</svg>
