<svg width="20" height="20" viewBox="0 0 20 20" fill="none" xmlns="http://www.w3.org/2000/svg">
<path d="M0 8.88889V2C0 0.895431 0.895431 0 2 0H8.88889V8.88889H0ZM2 20C0.895431 20 0 19.1046 0 18V11.1111H8.88889V20H2ZM11.1111 8.88889V0H18C19.1046 0 20 0.895431 20 2V8.88889H11.1111ZM11.1111 20V11.1111H20V18C20 19.1046 19.1046 20 18 20H11.1111ZM2.22222 6.66667H6.66667V2.22222H2.22222V6.66667ZM13.3333 6.66667H17.7778V2.22222H13.3333V6.66667ZM13.3333 17.7778H17.7778V13.3333H13.3333V17.7778ZM2.22222 17.7778H6.66667V13.3333H2.22222V17.7778Z" fill="white"/>
</svg>
