<svg width="20" height="20" viewBox="0 0 20 20" fill="none" xmlns="http://www.w3.org/2000/svg">
<path d="M18.08 19.6871L11.7122 13.3144C11.1436 13.7696 10.4898 14.1299 9.75069 14.3954C9.01157 14.661 8.22507 14.7937 7.39119 14.7937C5.32545 14.7937 3.57734 14.0776 2.14686 12.6452C0.716377 11.2129 0.000758071 9.46344 0 7.39687C0 5.32954 0.715619 3.58009 2.14686 2.14851C3.5781 0.716927 5.32621 0.000758653 7.39119 0C9.45694 0 11.205 0.716169 12.6355 2.14851C14.066 3.58084 14.7816 5.3303 14.7824 7.39687C14.7824 8.23139 14.6497 9.01849 14.3844 9.75818C14.1191 10.4979 13.759 11.1522 13.3041 11.7212L19.7004 18.1223C19.9088 18.331 20.0085 18.5916 19.9994 18.9041C19.9903 19.2167 19.8812 19.4777 19.6719 19.6871C19.4635 19.8957 19.1981 20 18.876 20C18.5538 20 18.2885 19.8957 18.08 19.6871ZM7.39119 12.5178C8.81258 12.5178 10.0209 12.0197 11.0163 11.0236C12.0116 10.0275 12.5089 8.81859 12.5082 7.39687C12.5082 5.97439 12.0105 4.7651 11.0152 3.76899C10.0198 2.77288 8.81182 2.2752 7.39119 2.27596C5.96981 2.27596 4.76144 2.77402 3.7661 3.77013C2.77075 4.76624 2.27346 5.97515 2.27421 7.39687C2.27421 8.81934 2.77189 10.0286 3.76723 11.0247C4.76258 12.0209 5.97057 12.5185 7.39119 12.5178ZM5.11698 10.8108L5.96981 8.02276L3.6956 6.20199H6.48151L7.39119 3.41394L8.30088 6.20199H11.0868L8.81258 8.02276L9.66541 10.8108L7.39119 9.04694L5.11698 10.8108Z" fill="white"/>
</svg>
